<?xml version="1.0" encoding="UTF-8" standalone="no"?>
<svg
   width="20"
   height="20"
   viewBox="0 0 20 20"
   fill="none"
   version="1.1"
   id="svg1"
   sodipodi:docname="close-btn-icon.svg"
   inkscape:version="1.3 (0e150ed6c4, 2023-07-21)"
   xmlns:inkscape="http://www.inkscape.org/namespaces/inkscape"
   xmlns:sodipodi="http://sodipodi.sourceforge.net/DTD/sodipodi-0.dtd"
   xmlns="http://www.w3.org/2000/svg"
   xmlns:svg="http://www.w3.org/2000/svg">
  <defs
     id="defs1" />
  <sodipodi:namedview
     id="namedview1"
     pagecolor="#ffffff"
     bordercolor="#999999"
     borderopacity="1"
     inkscape:showpageshadow="2"
     inkscape:pageopacity="0"
     inkscape:pagecheckerboard="false"
     inkscape:deskcolor="#d1d1d1"
     inkscape:zoom="41.05"
     inkscape:cx="10.01218"
     inkscape:cy="9.9756395"
     inkscape:window-width="1920"
     inkscape:window-height="1017"
     inkscape:window-x="-8"
     inkscape:window-y="24"
     inkscape:window-maximized="1"
     inkscape:current-layer="svg1" />
  <path
     id="path4"
     style="fill:#222222;fill-opacity:1;fill-rule:evenodd"
     d="M 5.8105469 0 C 2.1705577 0 1.1842367e-15 2.1705577 0 5.8105469 L 0 14.179688 C 0 17.829676 2.1705577 20 5.8105469 20 L 14.179688 20 C 17.819676 20 19.990234 17.829441 19.990234 14.189453 L 19.990234 5.8105469 C 20.000234 2.1705577 17.829441 1.1842367e-15 14.189453 0 L 5.8105469 0 z " />
  <path
     id="path3"
     style="fill:#d4a742;fill-opacity:1;fill-rule:evenodd"
     d="M 5.8105469 0 C 2.1705541 0 2.9605918e-15 2.1705541 0 5.8105469 L 0 14.179688 C 0 17.82968 2.1705541 20 5.8105469 20 L 14.179688 20 C 17.81968 20 19.990234 17.829445 19.990234 14.189453 L 19.990234 5.8105469 C 20.000234 2.1705541 17.829445 2.9605918e-15 14.189453 0 L 5.8105469 0 z M 7.1699219 6.421875 C 7.3624215 6.421875 7.554219 6.4956252 7.6992188 6.640625 L 10 8.9394531 L 12.300781 6.640625 C 12.590781 6.3506256 13.069375 6.3506256 13.359375 6.640625 C 13.649375 6.9306244 13.649375 7.4092192 13.359375 7.6992188 L 11.060547 10 L 13.359375 12.300781 C 13.649375 12.590781 13.649375 13.069375 13.359375 13.359375 C 13.209375 13.509375 13.020078 13.580078 12.830078 13.580078 C 12.640078 13.580078 12.450781 13.509375 12.300781 13.359375 L 10 11.060547 L 7.6992188 13.359375 C 7.549219 13.509375 7.3599215 13.580078 7.1699219 13.580078 C 6.9799223 13.580078 6.7906248 13.509375 6.640625 13.359375 C 6.3506256 13.069375 6.3506256 12.590781 6.640625 12.300781 L 8.9394531 10 L 6.640625 7.6992188 C 6.3506256 7.4092192 6.3506256 6.9306244 6.640625 6.640625 C 6.7856248 6.4956252 6.9774223 6.421875 7.1699219 6.421875 z " />
</svg>
