<svg width="12" height="13" viewBox="0 0 12 13" fill="none" xmlns="http://www.w3.org/2000/svg">
<path d="M6.00517 1.10882C6.30146 1.10882 6.60726 1.1677 6.92255 1.28546C7.23784 1.40322 7.51324 1.55137 7.74876 1.72991C7.98428 1.90844 8.17801 2.10597 8.32995 2.3225C8.4819 2.53902 8.55787 2.74225 8.55787 2.93218V4.75555C8.55787 5.18859 8.46671 5.67103 8.28437 6.20284C8.10203 6.73465 7.83233 7.13731 7.47525 7.41082C7.41447 7.464 7.36129 7.52668 7.31571 7.59885C7.27013 7.67103 7.23784 7.747 7.21884 7.82677C7.19985 7.90654 7.19415 7.98821 7.20175 8.07179C7.23974 8.34529 7.38029 8.53902 7.6234 8.65298L10.8029 10.1573C10.8029 10.1573 10.8105 10.1592 10.8257 10.163C10.8409 10.1668 10.8561 10.1725 10.8713 10.18C10.8865 10.1876 10.9055 10.199 10.9282 10.2142C10.951 10.2294 10.9719 10.2465 10.9909 10.2655C11.0099 10.2845 11.0289 10.3092 11.0479 10.3396C11.0669 10.37 11.0802 10.408 11.0878 10.4536C11.0954 10.4991 11.0992 10.5485 11.0992 10.6017V11.3083L0.899755 11.3196V10.5789C0.899755 10.389 1.00232 10.2484 1.20745 10.1573L4.40973 8.64159C4.65284 8.52763 4.79149 8.33579 4.82568 8.06609C4.85987 7.79638 4.7706 7.57796 4.55787 7.41082C4.2084 7.12972 3.93679 6.72136 3.74306 6.18575C3.54933 5.65013 3.45246 5.1734 3.45246 4.75555V2.93218C3.45246 2.68147 3.57782 2.41367 3.82853 2.12877C4.07924 1.84387 4.40593 1.60265 4.80859 1.40512C5.21125 1.20759 5.61011 1.10882 6.00517 1.10882ZM6.00517 0.379478C5.48095 0.379478 4.96243 0.506734 4.44961 0.761245C3.93679 1.01576 3.52084 1.34244 3.20175 1.7413C2.88266 2.14016 2.72312 2.53712 2.72312 2.93218V4.75555C2.72312 5.24937 2.83898 5.81728 3.07069 6.45925C3.30241 7.10123 3.64619 7.60835 4.10203 7.98062L0.899755 9.49629C0.876963 9.50388 0.850372 9.51528 0.819983 9.53048C0.789593 9.54567 0.732613 9.57986 0.649043 9.63304C0.565472 9.68622 0.491398 9.7394 0.42682 9.79258C0.362243 9.84576 0.303364 9.91224 0.250182 9.99201C0.197001 10.0718 0.17041 10.1459 0.17041 10.2142V11.3196C0.17041 11.5172 0.240686 11.6862 0.381236 11.8268C0.521787 11.9673 0.694627 12.0376 0.899755 12.0376H11.1106C11.3081 12.0376 11.4772 11.9673 11.6177 11.8268C11.7583 11.6862 11.8285 11.5172 11.8285 11.3196V10.2142C11.8285 10.1383 11.8038 10.0604 11.7545 9.98062C11.7051 9.90085 11.6443 9.83247 11.5721 9.77549C11.4999 9.71851 11.4297 9.66723 11.3613 9.62164C11.2929 9.57606 11.2321 9.54187 11.179 9.51908L11.1106 9.49629L7.93109 7.98062C8.38693 7.62354 8.72692 7.12972 8.95104 6.49914C9.17516 5.86856 9.28722 5.28736 9.28722 4.75555V2.93218C9.28722 2.63589 9.19035 2.33389 8.99662 2.0262C8.80289 1.71851 8.55408 1.44311 8.25018 1.19999C7.94629 0.956876 7.59301 0.759345 7.19035 0.607398C6.78769 0.455451 6.39263 0.379478 6.00517 0.379478Z" fill="#D4A742"/>
</svg>
