<svg width="18" height="18" viewBox="0 0 18 18" fill="none" xmlns="http://www.w3.org/2000/svg">
<g clip-path="url(#clip0_189_1390)">
<path d="M9.01981 2.04223C9.43957 2.04223 9.87277 2.12564 10.3194 2.29246C10.7661 2.45929 11.1562 2.66917 11.4899 2.92209C11.8235 3.17502 12.098 3.45486 12.3133 3.7616C12.5285 4.06834 12.6361 4.35625 12.6361 4.62532V7.20842C12.6361 7.8219 12.507 8.50535 12.2487 9.25875C11.9904 10.0122 11.6083 10.5826 11.1024 10.9701C11.0163 11.0454 10.941 11.1342 10.8764 11.2364C10.8118 11.3387 10.7661 11.4463 10.7392 11.5593C10.7123 11.6723 10.7042 11.788 10.715 11.9064C10.7688 12.2939 10.9679 12.5683 11.3123 12.7298L15.8166 14.8608C15.8166 14.8608 15.8273 14.8635 15.8489 14.8689C15.8704 14.8743 15.8919 14.8824 15.9135 14.8931C15.935 14.9039 15.9619 14.92 15.9942 14.9416C16.0265 14.9631 16.0561 14.9873 16.083 15.0142C16.1099 15.0411 16.1368 15.0761 16.1637 15.1191C16.1906 15.1622 16.2094 15.216 16.2202 15.2806C16.231 15.3452 16.2363 15.4151 16.2363 15.4905V16.4914L1.78714 16.5076V15.4582C1.78714 15.1891 1.93244 14.99 2.22304 14.8608L6.7596 12.7136C7.10402 12.5522 7.30044 12.2804 7.34887 11.8984C7.39731 11.5163 7.27084 11.2068 6.96948 10.9701C6.47439 10.5718 6.08961 9.99332 5.81516 9.23453C5.54071 8.47575 5.40348 7.80038 5.40348 7.20842V4.62532C5.40348 4.27015 5.58107 3.89075 5.93624 3.48715C6.29142 3.08354 6.75422 2.74181 7.32466 2.46198C7.89509 2.18214 8.46014 2.04223 9.01981 2.04223ZM9.01981 1.00899C8.27717 1.00899 7.54261 1.18927 6.81611 1.54982C6.08961 1.91038 5.50035 2.37319 5.0483 2.93824C4.59626 3.50329 4.37024 4.06565 4.37024 4.62532V7.20842C4.37024 7.90801 4.53437 8.71253 4.86264 9.622C5.19091 10.5315 5.67793 11.2499 6.32371 11.7773L1.78714 13.9245C1.75486 13.9352 1.71719 13.9514 1.67413 13.9729C1.63108 13.9944 1.55036 14.0429 1.43197 14.1182C1.31358 14.1935 1.20864 14.2689 1.11715 14.3442C1.02567 14.4196 0.942257 14.5137 0.866917 14.6267C0.791576 14.7398 0.753906 14.8447 0.753906 14.9416V16.5076C0.753906 16.7874 0.853463 17.0269 1.05258 17.226C1.25169 17.4251 1.49655 17.5247 1.78714 17.5247H16.2525C16.5323 17.5247 16.7718 17.4251 16.9709 17.226C17.17 17.0269 17.2696 16.7874 17.2696 16.5076V14.9416C17.2696 14.8339 17.2346 14.7236 17.1646 14.6106C17.0947 14.4976 17.0086 14.4007 16.9063 14.32C16.8041 14.2393 16.7045 14.1666 16.6077 14.1021C16.5108 14.0375 16.4247 13.989 16.3493 13.9568L16.2525 13.9245L11.7482 11.7773C12.394 11.2714 12.8756 10.5718 13.1931 9.6785C13.5106 8.78518 13.6694 7.96182 13.6694 7.20842V4.62532C13.6694 4.20557 13.5322 3.77774 13.2577 3.34185C12.9833 2.90595 12.6308 2.51579 12.2003 2.17138C11.7697 1.82697 11.2693 1.54713 10.6988 1.33187C10.1284 1.11662 9.56872 1.00899 9.01981 1.00899Z" fill="black"/>
</g>
<defs>
<clipPath id="clip0_189_1390">
<rect width="16.78" height="17" fill="white" transform="matrix(1 0 0 -1 0.629883 17.6699)"/>
</clipPath>
</defs>
</svg>
