<svg width="18" height="18" viewBox="0 0 18 18" fill="none" xmlns="http://www.w3.org/2000/svg">
<g clip-path="url(#clip0_189_1387)">
<path d="M9.30904 11.6804C9.2337 11.7557 9.18527 11.8364 9.16374 11.9225C9.14221 12.0086 9.14221 12.0974 9.16374 12.1889C9.18527 12.2804 9.2337 12.3584 9.30904 12.423C9.35209 12.4661 9.40591 12.501 9.47048 12.528C9.53506 12.5549 9.59964 12.5683 9.66422 12.5683C9.80413 12.5683 9.92791 12.5199 10.0355 12.423L13.0868 9.29101L10.0355 6.159C9.92791 6.05138 9.80413 5.99756 9.66422 5.99756C9.5243 5.99756 9.40591 6.05138 9.30904 6.159C9.26599 6.19129 9.2337 6.22627 9.21217 6.26394C9.19065 6.30161 9.1745 6.34197 9.16374 6.38503C9.15298 6.42808 9.1476 6.47113 9.1476 6.51418C9.1476 6.55723 9.15298 6.60028 9.16374 6.64334C9.1745 6.68639 9.19065 6.72944 9.21217 6.77249C9.2337 6.81554 9.26599 6.85321 9.30904 6.8855L11.1656 8.75825H1.22072C1.0808 8.75825 0.95972 8.80668 0.857473 8.90354C0.755225 9.00041 0.704102 9.12149 0.704102 9.26679C0.704102 9.41209 0.755225 9.53586 0.857473 9.63811C0.95972 9.74036 1.0808 9.79148 1.22072 9.79148H11.1979L9.30904 11.6804ZM16.2027 1.00896H6.90353C6.72056 1.00896 6.54836 1.0547 6.38691 1.14618C6.22547 1.23767 6.09901 1.36413 6.00752 1.52558C5.91604 1.68702 5.87029 1.85923 5.87029 2.0422V6.69177H6.91968V2.67183C6.91968 2.5642 6.94658 2.46195 7.0004 2.36508C7.05421 2.26822 7.12955 2.19019 7.22642 2.13099C7.32329 2.07179 7.42553 2.0422 7.53316 2.0422H15.5569C15.7291 2.0422 15.8771 2.10408 16.0009 2.22786C16.1246 2.35163 16.1865 2.49962 16.1865 2.67183L16.2027 15.8779C16.2027 16.0501 16.1408 16.1981 16.017 16.3219C15.8932 16.4456 15.7453 16.5075 15.573 16.5075H7.53316C7.36096 16.5075 7.21566 16.4456 7.09726 16.3219C6.97887 16.1981 6.91968 16.0501 6.91968 15.8779V11.8418H5.87029V16.5075C5.87029 16.7981 5.97254 17.043 6.17704 17.2421C6.38153 17.4412 6.6237 17.5408 6.90353 17.5408H16.2027C16.4933 17.5408 16.7381 17.4412 16.9372 17.2421C17.1364 17.043 17.2359 16.7981 17.2359 16.5075V2.0422C17.2359 1.62244 17.0476 1.3157 16.6709 1.12197C16.5202 1.04663 16.3641 1.00896 16.2027 1.00896Z" fill="black"/>
</g>
<defs>
<clipPath id="clip0_189_1387">
<rect width="16.78" height="17" fill="white" transform="matrix(1 0 0 -1 0.580078 17.6699)"/>
</clipPath>
</defs>
</svg>
