<svg width="24" height="24" viewBox="0 0 24 24" fill="none" xmlns="http://www.w3.org/2000/svg">
<path d="M12.0117 1.50147C12.6217 1.50147 13.2512 1.62268 13.9003 1.8651C14.5494 2.10753 15.1163 2.41251 15.6012 2.78006C16.086 3.14761 16.4848 3.55425 16.7977 4C17.1105 4.44575 17.2669 4.86412 17.2669 5.25513V9.0088C17.2669 9.90029 17.0792 10.8935 16.7038 11.9883C16.3284 13.0831 15.7732 13.912 15.0381 14.4751C14.913 14.5846 14.8035 14.7136 14.7097 14.8622C14.6158 15.0108 14.5494 15.1672 14.5103 15.3314C14.4712 15.4956 14.4594 15.6637 14.4751 15.8358C14.5533 16.3988 14.8426 16.7977 15.3431 17.0323L21.8886 20.129C21.8886 20.129 21.9042 20.1329 21.9355 20.1408C21.9668 20.1486 21.998 20.1603 22.0293 20.176C22.0606 20.1916 22.0997 20.2151 22.1466 20.2463C22.1935 20.2776 22.2366 20.3128 22.2757 20.3519C22.3148 20.391 22.3539 20.4418 22.393 20.5044C22.4321 20.567 22.4594 20.6452 22.4751 20.739C22.4907 20.8328 22.4985 20.9345 22.4985 21.044V22.4985L1.50147 22.522V20.9971C1.50147 20.6061 1.71261 20.3167 2.1349 20.129L8.72727 17.0088C9.22776 16.7742 9.5132 16.3793 9.58358 15.824C9.65396 15.2688 9.47019 14.8192 9.03226 14.4751C8.31281 13.8964 7.75367 13.0557 7.35484 11.9531C6.95601 10.8504 6.7566 9.86901 6.7566 9.0088V5.25513C6.7566 4.739 7.01466 4.18768 7.53079 3.60117C8.04692 3.01466 8.71945 2.51808 9.54839 2.11144C10.3773 1.70479 11.1984 1.50147 12.0117 1.50147ZM12.0117 0C10.9326 0 9.8651 0.261974 8.80938 0.785923C7.75367 1.30987 6.89736 1.9824 6.24047 2.80352C5.58358 3.62463 5.25513 4.44184 5.25513 5.25513V9.0088C5.25513 10.0254 5.49365 11.1945 5.97067 12.5161C6.4477 13.8377 7.15543 14.8817 8.09384 15.6481L1.50147 18.7683C1.45455 18.784 1.3998 18.8074 1.33724 18.8387C1.27468 18.87 1.15738 18.9404 0.985337 19.0499C0.813294 19.1593 0.660802 19.2688 0.527859 19.3783C0.394917 19.4878 0.273705 19.6246 0.164223 19.7889C0.054741 19.9531 0 20.1056 0 20.2463V22.522C0 22.9286 0.144673 23.2766 0.434018 23.566C0.723363 23.8553 1.07918 24 1.50147 24H22.522C22.9286 24 23.2766 23.8553 23.566 23.566C23.8553 23.2766 24 22.9286 24 22.522V20.2463C24 20.0899 23.9492 19.9296 23.8475 19.7654C23.7458 19.6012 23.6207 19.4604 23.4721 19.3431C23.3236 19.2258 23.1789 19.1202 23.0381 19.0264C22.8974 18.9326 22.7722 18.8622 22.6628 18.8152L22.522 18.7683L15.9765 15.6481C16.915 14.913 17.6149 13.8964 18.0762 12.5982C18.5376 11.3001 18.7683 10.1036 18.7683 9.0088V5.25513C18.7683 4.64516 18.5689 4.02346 18.1701 3.39003C17.7713 2.7566 17.259 2.18964 16.6334 1.68915C16.0078 1.18866 15.2805 0.782013 14.4516 0.469208C13.6227 0.156403 12.8094 0 12.0117 0Z" fill="white"/>
</svg>
