<svg width="23" height="22" viewBox="0 0 23 22" fill="none" xmlns="http://www.w3.org/2000/svg">
<path d="M22.8297 6.08831C22.8297 5.92116 22.8113 5.75022 22.7744 5.57549C22.7375 5.40075 22.6675 5.19562 22.5642 4.9601C22.4609 4.72458 22.2839 4.50806 22.0331 4.31053C21.7823 4.113 21.4725 3.96105 21.1037 3.85469L5.10463 0.572636C4.72106 0.572636 4.367 0.671402 4.04245 0.868933C3.71789 1.06646 3.45973 1.33237 3.26794 1.66665C3.07616 2.00094 2.98027 2.36561 2.98027 2.76067V5.67805H2.27215C1.6968 5.69324 1.2026 5.91357 0.789526 6.33902C0.376457 6.76447 0.169922 7.27349 0.169922 7.86608V19.5356C0.169922 20.1434 0.376457 20.66 0.789526 21.0855C1.2026 21.5109 1.70418 21.7236 2.29428 21.7236H20.7054C21.2955 21.7236 21.7971 21.5109 22.2101 21.0855C22.6232 20.66 22.8297 20.1434 22.8297 19.5356V6.08831ZM4.39651 2.76067C4.39651 2.56314 4.45921 2.396 4.5846 2.25924C4.71 2.12249 4.86859 2.04652 5.06037 2.03132L20.6833 5.29058C20.6833 5.29058 20.6648 5.32477 20.6279 5.39315C20.591 5.46152 20.5173 5.5299 20.4066 5.59828C20.296 5.66665 20.1595 5.69324 19.9973 5.67805H4.39651V2.76067ZM21.4135 19.5356C21.4135 19.7331 21.3434 19.9041 21.2033 20.0484C21.0631 20.1928 20.8972 20.2649 20.7054 20.2649H2.29428C2.1025 20.2649 1.93653 20.1928 1.79638 20.0484C1.65623 19.9041 1.58616 19.7331 1.58616 19.5356V7.86608C1.58616 7.66855 1.65623 7.49761 1.79638 7.35326C1.93653 7.20891 2.1025 7.13674 2.29428 7.13674H19.9973C20.3808 7.13674 20.7128 7.07216 20.9931 6.94301C21.2734 6.81385 21.4135 6.63531 21.4135 6.40739V19.5356ZM5.41443 12.6752C5.41443 12.6752 5.34436 12.603 5.20421 12.4587C5.06406 12.3143 4.79851 12.2422 4.40757 12.2422C4.01663 12.2422 3.6847 12.3865 3.41178 12.6752C3.13886 12.9639 3.0024 13.3096 3.0024 13.7122C3.0024 14.1149 3.13886 14.4568 3.41178 14.7379C3.6847 15.019 4.01663 15.1595 4.40757 15.1595C4.79851 15.1595 5.13413 15.019 5.41443 14.7379C5.69473 14.4568 5.83488 14.1149 5.83488 13.7122C5.83488 13.3096 5.69473 12.9639 5.41443 12.6752Z" fill="white"/>
</svg>
