<svg width="18" height="16" viewBox="0 0 18 16" fill="none" xmlns="http://www.w3.org/2000/svg">
<path d="M17.5157 4.69084C17.5157 4.57245 17.5022 4.45137 17.4753 4.3276C17.4484 4.20382 17.3973 4.05852 17.322 3.8917C17.2466 3.72487 17.1175 3.5715 16.9345 3.43159C16.7515 3.29167 16.5255 3.18404 16.2564 3.1087L4.58408 0.783913C4.30424 0.783913 4.04593 0.853871 3.80915 0.993789C3.57236 1.13371 3.38401 1.32206 3.2441 1.55884C3.10418 1.79562 3.03422 2.05393 3.03422 2.33377V4.40025H2.5176C2.09785 4.41101 1.73729 4.56707 1.43593 4.86843C1.13457 5.16979 0.983887 5.53035 0.983887 5.9501V14.216C0.983887 14.6465 1.13457 15.0125 1.43593 15.3138C1.73729 15.6152 2.10323 15.7659 2.53374 15.7659H15.9658C16.3964 15.7659 16.7623 15.6152 17.0637 15.3138C17.365 15.0125 17.5157 14.6465 17.5157 14.216V4.69084ZM4.06746 2.33377C4.06746 2.19385 4.1132 2.07546 4.20468 1.97859C4.29617 1.88173 4.41187 1.82791 4.55179 1.81715L15.9497 4.12579C15.9497 4.12579 15.9362 4.15001 15.9093 4.19844C15.8824 4.24688 15.8286 4.29531 15.7479 4.34374C15.6672 4.39217 15.5676 4.41101 15.4492 4.40025H4.06746V2.33377ZM16.4825 14.216C16.4825 14.3559 16.4313 14.477 16.3291 14.5793C16.2268 14.6815 16.1058 14.7326 15.9658 14.7326H2.53374C2.39383 14.7326 2.27274 14.6815 2.1705 14.5793C2.06825 14.477 2.01713 14.3559 2.01713 14.216V5.9501C2.01713 5.81019 2.06825 5.6891 2.1705 5.58686C2.27274 5.48461 2.39383 5.43349 2.53374 5.43349H15.4492C15.7291 5.43349 15.9712 5.38774 16.1757 5.29626C16.3802 5.20477 16.4825 5.07831 16.4825 4.91687V14.216ZM4.8101 9.35656C4.8101 9.35656 4.75897 9.30544 4.65673 9.20319C4.55448 9.10094 4.36075 9.04982 4.07553 9.04982C3.79031 9.04982 3.54815 9.15207 3.34903 9.35656C3.14992 9.56106 3.05036 9.80591 3.05036 10.0911C3.05036 10.3763 3.14992 10.6185 3.34903 10.8176C3.54815 11.0167 3.79031 11.1163 4.07553 11.1163C4.36075 11.1163 4.6056 11.0167 4.8101 10.8176C5.01459 10.6185 5.11684 10.3763 5.11684 10.0911C5.11684 9.80591 5.01459 9.56106 4.8101 9.35656Z" fill="black"/>
</svg>
