<svg width="12" height="13" viewBox="0 0 12 13" fill="none" xmlns="http://www.w3.org/2000/svg">
<path d="M6.24448 7.91232C6.1913 7.9655 6.15711 8.02248 6.14192 8.08326C6.12673 8.14404 6.12673 8.20672 6.14192 8.27129C6.15711 8.33587 6.1913 8.39095 6.24448 8.43654C6.27487 8.46693 6.31286 8.49162 6.35844 8.51061C6.40403 8.5296 6.44961 8.5391 6.4952 8.5391C6.59396 8.5391 6.68133 8.50491 6.7573 8.43654L8.91115 6.22571L6.7573 4.01488C6.68133 3.93891 6.59396 3.90092 6.4952 3.90092C6.39643 3.90092 6.31286 3.93891 6.24448 4.01488C6.21409 4.03768 6.1913 4.06237 6.17611 4.08896C6.16091 4.11555 6.14952 4.14404 6.14192 4.17443C6.13432 4.20482 6.13052 4.23521 6.13052 4.2656C6.13052 4.29599 6.13432 4.32638 6.14192 4.35676C6.14952 4.38715 6.16091 4.41754 6.17611 4.44793C6.1913 4.47832 6.21409 4.50491 6.24448 4.5277L7.55503 5.84964H0.535083C0.436317 5.84964 0.350847 5.88383 0.278672 5.95221C0.206498 6.02058 0.17041 6.10605 0.17041 6.20862C0.17041 6.31118 0.206498 6.39855 0.278672 6.47072C0.350847 6.5429 0.436317 6.57899 0.535083 6.57899H7.57782L6.24448 7.91232ZM11.1106 0.379557H4.54648C4.41732 0.379557 4.29577 0.411845 4.18181 0.476422C4.06785 0.541 3.97858 0.630269 3.914 0.744229C3.84942 0.85819 3.81713 0.979747 3.81713 1.1089V4.39095H4.55787V1.55335C4.55787 1.47737 4.57687 1.4052 4.61485 1.33682C4.65284 1.26845 4.70602 1.21336 4.7744 1.17158C4.84277 1.12979 4.91495 1.1089 4.99092 1.1089H10.6547C10.7763 1.1089 10.8808 1.15259 10.9681 1.23996C11.0555 1.32732 11.0992 1.43179 11.0992 1.55335L11.1106 10.8753C11.1106 10.9968 11.0669 11.1013 10.9795 11.1887C10.8922 11.276 10.7877 11.3197 10.6661 11.3197H4.99092C4.86937 11.3197 4.7668 11.276 4.68323 11.1887C4.59966 11.1013 4.55787 10.9968 4.55787 10.8753V8.02628H3.81713V11.3197C3.81713 11.5249 3.88931 11.6977 4.03366 11.8382C4.17801 11.9788 4.34895 12.0491 4.54648 12.0491H11.1106C11.3157 12.0491 11.4885 11.9788 11.6291 11.8382C11.7697 11.6977 11.8399 11.5249 11.8399 11.3197V1.1089C11.8399 0.812605 11.707 0.596081 11.4411 0.459329C11.3347 0.406147 11.2245 0.379557 11.1106 0.379557Z" fill="#D4A742"/>
</svg>
