<svg width="12" height="12" viewBox="0 0 12 12" fill="none" xmlns="http://www.w3.org/2000/svg">
<path d="M11.8399 3.68429C11.8399 3.60072 11.8304 3.51525 11.8114 3.42788C11.7924 3.34051 11.7564 3.23795 11.7032 3.12019C11.65 3.00243 11.5588 2.89417 11.4297 2.7954C11.3005 2.69664 11.141 2.62066 10.951 2.56748L2.71172 0.926455C2.51419 0.926455 2.33185 0.975838 2.16471 1.0746C1.99757 1.17337 1.86462 1.30632 1.76585 1.47346C1.66709 1.6406 1.6177 1.82294 1.6177 2.02047V3.47916H1.25303C0.956735 3.48676 0.702224 3.59692 0.489498 3.80965C0.276773 4.02237 0.17041 4.27688 0.17041 4.57318V10.4079C0.17041 10.7118 0.276773 10.9701 0.489498 11.1829C0.702224 11.3956 0.960534 11.502 1.26443 11.502H10.7459C11.0498 11.502 11.3081 11.3956 11.5208 11.1829C11.7336 10.9701 11.8399 10.7118 11.8399 10.4079V3.68429ZM2.34705 2.02047C2.34705 1.92171 2.37934 1.83814 2.44391 1.76976C2.50849 1.70138 2.59016 1.6634 2.68893 1.6558L10.7345 3.28543C10.7345 3.28543 10.725 3.30252 10.706 3.33671C10.687 3.3709 10.649 3.40509 10.5921 3.43927C10.5351 3.47346 10.4648 3.48676 10.3812 3.47916H2.34705V2.02047ZM11.1106 10.4079C11.1106 10.5067 11.0745 10.5922 11.0023 10.6643C10.9301 10.7365 10.8447 10.7726 10.7459 10.7726H1.26443C1.16566 10.7726 1.08019 10.7365 1.00802 10.6643C0.935842 10.5922 0.899755 10.5067 0.899755 10.4079V4.57318C0.899755 4.47441 0.935842 4.38894 1.00802 4.31677C1.08019 4.24459 1.16566 4.20851 1.26443 4.20851H10.3812C10.5788 4.20851 10.7497 4.17622 10.8941 4.11164C11.0384 4.04706 11.1106 3.95779 11.1106 3.84383V10.4079ZM2.87126 6.97774C2.87126 6.97774 2.83518 6.94165 2.763 6.86947C2.69083 6.7973 2.55408 6.76121 2.35275 6.76121C2.15142 6.76121 1.98048 6.83339 1.83993 6.97774C1.69938 7.12209 1.6291 7.29493 1.6291 7.49625C1.6291 7.69758 1.69938 7.86852 1.83993 8.00908C1.98048 8.14963 2.15142 8.2199 2.35275 8.2199C2.55408 8.2199 2.72692 8.14963 2.87126 8.00908C3.01561 7.86852 3.08779 7.69758 3.08779 7.49625C3.08779 7.29493 3.01561 7.12209 2.87126 6.97774Z" fill="#D4A742"/>
</svg>
