<svg width="21" height="15" viewBox="0 0 21 15" fill="none" xmlns="http://www.w3.org/2000/svg">
<path d="M1.79393 3.20581H19.2179C19.5846 3.20581 19.9036 3.07014 20.1749 2.79881C20.4463 2.52748 20.5819 2.20848 20.5819 1.84181C20.5819 1.47514 20.4463 1.15248 20.1749 0.873811C19.9036 0.595144 19.5846 0.455811 19.2179 0.455811H1.79393C1.42726 0.455811 1.10826 0.595144 0.836932 0.873811C0.565598 1.15248 0.429932 1.47514 0.429932 1.84181C0.429932 2.20848 0.565598 2.52748 0.836932 2.79881C1.10826 3.07014 1.42726 3.20581 1.79393 3.20581ZM1.79393 8.70581H19.2179C19.5846 8.70581 19.9036 8.57014 20.1749 8.29881C20.4463 8.02748 20.5819 7.70848 20.5819 7.34181C20.5819 6.97514 20.4463 6.65248 20.1749 6.37381C19.9036 6.09514 19.5846 5.95581 19.2179 5.95581H1.79393C1.42726 5.95581 1.10826 6.09514 0.836932 6.37381C0.565598 6.65248 0.429932 6.97514 0.429932 7.34181C0.429932 7.70848 0.565598 8.02748 0.836932 8.29881C1.10826 8.57014 1.42726 8.70581 1.79393 8.70581ZM1.79393 14.2058H19.2179C19.5846 14.2058 19.9036 14.0701 20.1749 13.7988C20.4463 13.5275 20.5819 13.2085 20.5819 12.8418C20.5819 12.4751 20.4463 12.1525 20.1749 11.8738C19.9036 11.5951 19.5846 11.4558 19.2179 11.4558H1.79393C1.42726 11.4558 1.10826 11.5951 0.836932 11.8738C0.565598 12.1525 0.429932 12.4751 0.429932 12.8418C0.429932 13.2085 0.565598 13.5275 0.836932 13.7988C1.10826 14.0701 1.42726 14.2058 1.79393 14.2058Z" fill="#33373D"/>
</svg>
